<?xml version="1.0" encoding="utf-8"?>
<svg version="1.1" id="Layer_1" xmlns="http://www.w3.org/2000/svg" xmlns:xlink="http://www.w3.org/1999/xlink" x="0px" y="0px"
	 viewBox="0 0 260 260" style="enable-background:new 0 0 260 260;" xml:space="preserve">
<style type="text/css">
	.st0{fill:#6B7280;}
</style>
<path class="st0" d="M233.2,121.5c-6-4.3-12.5-7.8-19.6-10.5c-7.1-2.7-13.8-5-20.2-7.1c-6.2-2-10.7-3.7-13.5-5
	c-2.8-1.3-4.2-3.4-4.2-6.1c0-2.9,1.3-4.9,4-6.2c2.7-1.3,6.2-1.9,10.6-1.9c4.7,0,10,1.3,15.9,3.9c5.9,2.6,10.9,6.4,14.9,11.5
	l37.4-38.1c-9.3-8.6-20-15.1-32.2-19.7c-12.2-4.5-24.2-6.8-36-6.8H1.4v50.7h37.7v128h55.1v-128h22.1c-0.5,3.4-0.8,6.9-0.8,10.7
	c0,7.9,1.3,14.7,3.8,20.4c2.5,5.6,5.9,10.5,10.2,14.5c4.3,4,9.2,7.5,14.8,10.2c5.6,2.8,11.4,5.2,17.4,7.2c6.2,2,11.4,3.8,15.5,5.3
	c4.1,1.5,7.4,2.9,9.7,4.2c2.4,1.3,4,2.5,4.9,3.7c0.9,1.2,1.4,2.6,1.4,4.3c0,3.2-1.4,5.4-4.2,6.6c-2.8,1.2-5.8,1.8-9.2,1.8
	c-7.4,0-14.6-1.8-21.6-5.3c-7-3.5-12.6-7.6-16.8-12.1l-36.6,39.8c4.5,4,9.7,7.7,15.4,10.9c5.7,3.3,11.8,6.1,18.3,8.5
	c6.5,2.4,13.2,4.3,20.2,5.5c7,1.3,14.1,1.9,21.3,1.9c9.1,0,18-1.3,26.8-3.9c8.7-2.6,16.6-6.6,23.6-11.9c7-5.3,12.6-11.9,16.9-19.9
	c4.3-8,6.4-17.4,6.4-28.1c0-9.3-1.9-17-5.8-23.2C244.1,131.1,239.2,125.8,233.2,121.5z"/>
</svg>
