<?xml version="1.0" standalone="no"?>
<!DOCTYPE svg PUBLIC "-//W3C//DTD SVG 20010904//EN"
 "http://www.w3.org/TR/2001/REC-SVG-20010904/DTD/svg10.dtd">
<svg version="1.0" xmlns="http://www.w3.org/2000/svg"
 width="700.000000pt" height="700.000000pt" viewBox="0 0 700.000000 700.000000"
 preserveAspectRatio="xMidYMid meet">
<metadata>
Created by potrace 1.14, written by Peter Selinger 2001-2017
</metadata>
<g transform="translate(0.000000,700.000000) scale(0.100000,-0.100000)"
fill="#000000" stroke="none">
<path d="M42 6036 c-7 -12 -7 -1344 0 -1352 3 -3 231 -5 507 -5 l501 0 0 -27
c1 -15 1 -790 1 -1723 l1 -1696 736 2 c405 1 739 3 742 3 3 1 5 770 5 1710 -1
939 1 1713 3 1720 3 9 72 12 299 12 l294 0 -8 -62 c-10 -80 -10 -374 0 -453
30 -230 130 -451 285 -632 69 -79 208 -196 320 -267 59 -39 280 -150 367 -186
98 -40 185 -71 405 -146 601 -203 715 -277 697 -450 -10 -99 -76 -154 -222
-184 -58 -12 -205 -15 -275 -5 -118 16 -178 30 -294 71 -188 67 -467 243 -574
363 l-22 26 -48 -50 c-26 -28 -72 -77 -102 -110 -30 -33 -101 -110 -156 -170
-56 -61 -114 -123 -129 -140 -43 -48 -197 -215 -234 -254 -18 -20 -64 -70
-101 -111 -37 -41 -100 -109 -139 -150 -39 -41 -71 -79 -71 -83 0 -25 187
-166 353 -266 99 -59 264 -145 347 -180 30 -13 69 -29 85 -36 188 -80 458
-159 654 -191 18 -3 43 -8 55 -10 50 -10 167 -25 246 -32 170 -13 530 -6 626
12 10 2 60 11 109 21 444 82 802 262 1076 542 229 235 363 490 421 802 33 178
32 483 -2 639 -67 303 -282 587 -610 801 -81 53 -324 182 -365 194 -11 3 -74
26 -140 52 -66 26 -250 91 -410 145 -439 149 -489 172 -525 246 -48 97 -4 204
103 249 287 120 759 -14 1027 -291 72 -73 73 -74 94 -57 11 10 23 21 26 25 5
5 603 616 854 870 l105 107 -37 36 c-48 47 -264 210 -322 243 -25 14 -52 31
-61 38 -18 16 -262 140 -334 171 -162 68 -446 155 -585 178 -19 3 -42 8 -50
10 -8 2 -35 7 -60 10 -25 3 -61 8 -80 10 -19 3 -71 8 -115 12 -126 10 -5266 9
-5273 -1z"/>
</g>
</svg>
