<?xml version="1.0" encoding="utf-8"?>
<!-- Generator: Adobe Illustrator 25.2.0, SVG Export Plug-In . SVG Version: 6.00 Build 0)  -->
<svg version="1.1" id="Layer_1" xmlns="http://www.w3.org/2000/svg" xmlns:xlink="http://www.w3.org/1999/xlink" x="0px" y="0px"
	 viewBox="0 0 25 25" style="enable-background:new 0 0 25 25;" xml:space="preserve">
<style type="text/css">
	.st0{fill-rule:evenodd;clip-rule:evenodd;fill:#9CA3AF;}
</style>
<path class="st0" d="M152.6,383.4c-9,0-16.3,7.3-16.3,16.3c0,7.2,4.7,13.3,11.1,15.5c0.8,0.1,1.1-0.4,1.1-0.8c0-0.4,0-1.4,0-2.8
	c-4.5,1-5.5-2.2-5.5-2.2c-0.7-1.9-1.8-2.4-1.8-2.4c-1.5-1,0.1-1,0.1-1c1.6,0.1,2.5,1.7,2.5,1.7c1.5,2.5,3.8,1.8,4.7,1.4
	c0.1-1.1,0.6-1.8,1-2.2c-3.6-0.4-7.4-1.8-7.4-8.1c0-1.8,0.6-3.2,1.7-4.4c-0.2-0.4-0.7-2.1,0.2-4.3c0,0,1.4-0.4,4.5,1.7
	c1.3-0.4,2.7-0.5,4.1-0.5c1.4,0,2.8,0.2,4.1,0.5c3.1-2.1,4.5-1.7,4.5-1.7c0.9,2.2,0.3,3.9,0.2,4.3c1,1.1,1.7,2.6,1.7,4.4
	c0,6.3-3.8,7.6-7.4,8c0.6,0.5,1.1,1.5,1.1,3c0,2.2,0,3.9,0,4.5c0,0.4,0.3,0.9,1.1,0.8c6.5-2.2,11.1-8.3,11.1-15.5
	C168.9,390.7,161.6,383.4,152.6,383.4z"/>
<path class="st0" d="M12.5,0C5.6,0,0,5.6,0,12.5C0,18,3.6,22.7,8.5,24.4c0.6,0.1,0.9-0.3,0.9-0.6c0-0.3,0-1.1,0-2.1
	C5.9,22.4,5.2,20,5.2,20c-0.6-1.4-1.4-1.8-1.4-1.8c-1.1-0.8,0.1-0.8,0.1-0.8c1.3,0.1,1.9,1.3,1.9,1.3c1.1,1.9,2.9,1.4,3.6,1
	c0.1-0.8,0.4-1.4,0.8-1.7c-2.8-0.3-5.7-1.4-5.7-6.2c0-1.4,0.5-2.5,1.3-3.4C5.7,8.2,5.3,6.9,5.9,5.2c0,0,1-0.3,3.4,1.3
	c1-0.3,2.1-0.4,3.1-0.4c1.1,0,2.1,0.1,3.1,0.4c2.4-1.6,3.4-1.3,3.4-1.3c0.7,1.7,0.3,3,0.1,3.3c0.8,0.9,1.3,2,1.3,3.4
	c0,4.8-2.9,5.9-5.7,6.2c0.4,0.4,0.8,1.1,0.8,2.3c0,1.7,0,3,0,3.4c0,0.3,0.2,0.7,0.9,0.6c5-1.7,8.5-6.3,8.5-11.9
	C25,5.6,19.4,0,12.5,0z"/>
</svg>
